<?xml version="1.0" standalone="no"?>
<!DOCTYPE svg PUBLIC "-//W3C//DTD SVG 20010904//EN"
 "http://www.w3.org/TR/2001/REC-SVG-20010904/DTD/svg10.dtd">
<svg version="1.0" xmlns="http://www.w3.org/2000/svg"
 width="512.000000pt" height="512.000000pt" viewBox="0 0 512.000000 512.000000"
 preserveAspectRatio="xMidYMid meet">
<metadata>
Created by potrace 1.11, written by Peter Selinger 2001-2013
</metadata>
<g transform="translate(0.000000,512.000000) scale(0.100000,-0.100000)"
fill="#000000" stroke="none">
<path d="M2467 5103 c-62 -21 -138 -89 -168 -150 -32 -67 -32 -180 -1 -240 32
-61 75 -106 127 -134 l45 -24 0 -92 0 -91 -307 -5 c-339 -4 -372 -9 -491 -70
-107 -54 -189 -145 -237 -263 -23 -56 -25 -58 -74 -71 -147 -37 -277 -155
-335 -303 -27 -69 -33 -212 -11 -285 48 -166 158 -283 314 -336 33 -12 61 -22
61 -22 1 -1 7 -38 15 -82 31 -172 127 -302 277 -374 141 -67 128 -66 883 -66
749 0 743 0 875 62 157 75 242 204 285 433 3 21 13 28 50 38 148 39 283 176
329 331 20 67 21 188 2 257 -44 164 -194 310 -354 345 -47 9 -49 12 -64 59
-36 111 -143 232 -254 284 -104 50 -161 56 -485 56 l-299 0 0 98 0 99 40 18
c49 22 113 90 135 141 47 113 24 226 -64 314 -85 85 -184 109 -294 73z m176
-203 c53 -60 34 -146 -41 -177 -46 -19 -101 -5 -131 34 -42 52 -18 148 43 174
40 17 99 3 129 -31z m680 -738 c79 -32 136 -78 173 -140 55 -91 59 -133 59
-602 0 -412 -1 -427 -22 -495 -46 -145 -146 -225 -308 -246 -51 -6 -312 -9
-720 -7 -596 3 -643 5 -690 22 -125 47 -196 120 -230 237 -14 49 -15 118 -13
525 l3 469 26 55 c34 73 76 120 138 154 100 54 117 55 851 53 l675 -2 58 -23z
m538 -459 c106 -111 116 -276 26 -395 -34 -44 -94 -90 -134 -102 l-23 -7 0
295 0 296 48 -24 c26 -13 63 -42 83 -63z m-2471 -218 l0 -295 -37 15 c-155 65
-229 266 -152 416 35 69 135 156 182 159 4 0 7 -133 7 -295z"/>
<path d="M1990 3967 c-112 -25 -211 -110 -251 -216 -31 -83 -25 -195 15 -274
108 -211 387 -257 554 -89 24 23 56 69 70 100 23 48 27 71 27 142 0 72 -4 94
-28 145 -68 145 -231 226 -387 192z m149 -182 c70 -35 110 -123 91 -195 -30
-113 -155 -164 -256 -105 -48 28 -84 91 -84 145 0 54 36 117 83 145 49 29 122
33 166 10z"/>
<path d="M2991 3969 c-107 -21 -202 -97 -249 -197 -22 -48 -27 -71 -27 -142 0
-71 5 -94 27 -142 105 -227 406 -272 573 -85 118 130 114 335 -7 463 -80 84
-206 126 -317 103z m154 -192 c47 -26 85 -92 85 -148 0 -53 -39 -120 -86 -146
-116 -67 -256 14 -256 147 0 133 139 213 257 147z"/>
<path d="M2045 3043 c-65 -16 -88 -98 -39 -144 l26 -24 528 0 528 0 26 24 c36
34 36 88 0 122 l-26 24 -511 1 c-282 1 -521 0 -532 -3z"/>
<path d="M884 2659 c-106 -25 -210 -124 -240 -228 -23 -77 -15 -181 18 -246
33 -63 109 -135 170 -161 l48 -19 0 -322 0 -322 -54 -24 c-67 -31 -134 -96
-166 -162 -21 -44 -25 -67 -28 -186 -4 -132 -3 -136 21 -164 34 -40 90 -41
123 -1 22 25 24 36 24 132 0 116 11 156 56 198 62 57 151 56 215 -1 48 -44 59
-81 59 -205 0 -87 2 -100 24 -124 33 -40 89 -39 123 1 24 28 25 32 21 164 -3
133 -4 137 -37 199 -38 70 -93 121 -164 152 l-47 21 0 323 0 323 45 17 c60 23
138 96 166 154 12 26 23 48 24 50 2 2 49 -6 123 -23 l22 -5 0 -576 c0 -662 3
-697 77 -899 128 -347 435 -614 800 -695 569 -126 1138 196 1323 750 54 159
53 153 57 807 l4 613 22 5 c73 16 120 25 121 23 38 -92 115 -175 191 -204 l45
-17 0 -322 0 -322 -65 -32 c-70 -35 -121 -86 -157 -160 -19 -39 -23 -66 -26
-182 -4 -132 -3 -136 21 -164 34 -40 90 -41 123 -1 22 25 24 36 24 131 0 117
8 146 53 193 61 63 152 65 218 5 48 -44 59 -81 59 -205 0 -87 2 -100 24 -124
33 -40 89 -39 123 1 24 28 25 32 21 164 -3 133 -4 137 -37 199 -38 70 -93 121
-164 152 l-47 21 0 323 0 322 54 23 c61 25 131 92 167 162 20 37 24 59 24 134
0 77 -4 98 -26 145 -56 117 -170 191 -295 191 -38 0 -84 -5 -102 -10 -92 -27
-189 -117 -219 -201 l-17 -47 -115 -22 c-114 -21 -136 -21 -1151 -21 -1013 0
-1037 0 -1148 21 l-113 21 -28 62 c-54 119 -158 192 -283 201 -34 2 -81 0
-104 -6z m3318 -169 c21 -6 51 -27 71 -49 120 -133 -26 -329 -187 -252 -105
51 -126 179 -42 260 48 46 94 58 158 41z m-3154 -20 c97 -59 104 -199 14 -268
-49 -37 -140 -39 -191 -3 -70 50 -89 162 -39 226 51 66 149 86 216 45z m2467
-865 c0 -610 -2 -639 -48 -770 l-14 -40 -895 -3 -896 -2 -21 77 c-11 43 -25
119 -31 168 -11 99 -14 1138 -3 1148 3 4 434 6 957 5 l951 -3 0 -580z m-155
-991 c0 -15 -69 -102 -129 -162 -407 -407 -1084 -358 -1432 103 -22 29 -39 55
-39 58 0 4 360 7 800 7 440 0 800 -3 800 -6z"/>
<path d="M2590 1883 c-313 -318 -330 -336 -330 -375 0 -38 28 -75 63 -83 12
-3 81 -6 153 -8 l132 -2 -155 -170 c-85 -93 -163 -183 -174 -200 -27 -42 -24
-72 10 -106 44 -43 81 -40 134 14 104 105 453 500 464 525 14 32 8 59 -20 90
-19 21 -28 22 -164 22 -79 0 -143 3 -143 6 0 4 74 84 165 180 106 111 165 181
165 194 0 29 -26 76 -45 84 -9 3 -31 6 -48 6 -28 0 -53 -21 -207 -177z"/>
</g>
</svg>
